<?xml version="1.0" encoding="utf-8"?>
<!-- Generator: Adobe Illustrator 16.0.0, SVG Export Plug-In . SVG Version: 6.00 Build 0)  -->
<!DOCTYPE svg PUBLIC "-//W3C//DTD SVG 1.1//EN" "http://www.w3.org/Graphics/SVG/1.1/DTD/svg11.dtd">
<svg version="1.1" id="Layer_1" xmlns="http://www.w3.org/2000/svg" xmlns:xlink="http://www.w3.org/1999/xlink" x="0px" y="0px"
	 width="150px" height="150px" viewBox="0 0 150 150" style="enable-background:new 0 0 150 150;" xml:space="preserve">
<style type="text/css">
<![CDATA[
	.st0{fill:#333333;}
]]>
</style>
<g>
	<path class="st0" d="M20.2,20.3h10.3v38.2h36.1V20.3h10.2v82.4H66.7V67.2H30.5v35.6H20.2V20.3z"/>
	<path class="st0" d="M79.6,20.3H98c16.8,0,25.7,8.5,25.7,22.8c0,9.8-4.8,18.7-14.4,21.8l20.5,37.8h-11.5L99.7,67H79.6v-8.4H98
		c9.7,0,15.7-4.5,15.7-15.3c0-8.7-4.6-14.5-16.3-14.5H79.6V20.3z"/>
	<g>
		<path class="st0" d="M20.2,110.1h2.2v8.4h10.2v-8.4h2.2v19.2h-2.2v-8.8H22.4v8.8h-2.2V110.1z"/>
		<path class="st0" d="M38.8,123.9V115H41v9c0,2.3,1.5,3.7,3.4,3.7c2.2,0,3.7-1.6,3.7-4V115h2.2v14.3h-2.2v-2.1
			c-0.7,1.3-2.3,2.4-4.2,2.4C40.5,129.7,38.8,127.2,38.8,123.9z"/>
		<path class="st0" d="M53.9,109.4H56v7.9c0.4-0.7,2.1-2.7,5.1-2.7c4,0,6.8,3.1,6.8,7.5c0,4.4-2.9,7.5-7,7.5c-3.1,0-4.6-2.1-5-2.6
			v2.3h-2.1v-19.9H53.9z M60.8,127.7c2.8,0,4.9-2.2,4.9-5.5s-2-5.6-4.8-5.6c-2.7,0-4.9,2-4.9,5.6C56,125.2,57.8,127.7,60.8,127.7z"
			/>
	</g>
	<g>
		<path class="st0" d="M71.2,110.1h4.9c3.9,0,6,2,6,5.3c0,2.3-1.1,4.4-3.4,5.1l4.8,8.8H81l-4.3-8.4h-3.3v8.4h-2.2V110.1z M76.1,119
			c2.3,0,3.7-1,3.7-3.6c0-2-1.1-3.4-3.8-3.4h-2.5v7H76.1z"/>
		<path class="st0" d="M92.4,114.7c4.3,0,7.5,3.2,7.5,7.5s-3.2,7.5-7.5,7.5c-4.3,0-7.5-3.2-7.5-7.5C85,117.8,88.2,114.7,92.4,114.7z
			 M92.4,127.7c3.1,0,5.3-2.3,5.3-5.5s-2.2-5.5-5.3-5.5c-3.1,0-5.2,2.4-5.2,5.5C87.2,125.4,89.4,127.7,92.4,127.7z"/>
		<path class="st0" d="M107.2,120.2c1.8,0,3.2,0.7,3.8,1.3v-1.8c0-2-1.3-3.2-3.5-3.2c-1.8,0-3.2,0.6-4.2,1.2l-0.9-1.6
			c1-0.6,2.9-1.6,5.3-1.6c3.9,0,5.4,2.2,5.4,5.2v9.4h-1.9l-0.2-1.2c-0.7,0.9-2,1.6-3.9,1.6c-3.1,0-5.4-2-5.4-4.8
			C101.7,122.2,104,120.2,107.2,120.2z M107.5,127.9c2.1,0,3.5-1.2,3.5-3c0-1.8-1.4-2.9-3.6-2.9c-2.2,0-3.6,1.3-3.6,2.9
			C103.9,126.5,105.3,127.9,107.5,127.9z"/>
		<path class="st0" d="M129.8,129.3h-2.1V127c-0.4,0.5-1.8,2.6-5,2.6c-4.1,0-7-3.1-7-7.5c0-4.4,2.8-7.5,6.8-7.5c3,0,4.6,1.9,5,2.7
			v-7.9h2.2L129.8,129.3L129.8,129.3z M122.8,116.6c-2.8,0-4.8,2.3-4.8,5.6s2.1,5.5,4.9,5.5c3,0,4.8-2.5,4.8-5.5
			C127.7,118.7,125.5,116.6,122.8,116.6z"/>
	</g>
</g>
</svg>
